<svg width="110" height="32" viewBox="0 0 110 32" fill="none" xmlns="http://www.w3.org/2000/svg">
<path fill-rule="evenodd" clip-rule="evenodd" d="M15.0258 32H26.812L34.3259 24.7904V14.5964L23.3024 4.0193L17.9892 9.11536L31.8371 22.4025C32.2622 22.8103 32.3833 23.3935 32.1529 23.9271C31.9225 24.4607 31.4081 24.7904 30.8063 24.7904H12.114C9.58353 24.7904 7.51387 22.8046 7.5119 20.3766V0H0V17.5828L15.0258 32Z" fill="white"/>
<path d="M94.7446 20.5289V22.4442H98.6833C98.9596 22.4442 99.2097 22.3375 99.3884 22.1641H99.3905C99.5692 21.9926 99.6806 21.7525 99.6806 21.4875C99.6806 21.2226 99.5692 20.9845 99.3884 20.811C99.2076 20.6376 98.9575 20.5309 98.6833 20.5309H94.7446V20.5289ZM100.26 19.9744C100.664 20.3613 100.914 20.8968 100.914 21.4875C100.914 22.0784 100.664 22.6101 100.258 22.9989C99.8572 23.3877 99.2993 23.6258 98.6833 23.6258H93.5132V16.2505H97.8988C98.5148 16.2505 99.0726 16.4906 99.4758 16.8775C99.879 17.2663 100.129 17.8018 100.129 18.3906C100.098 18.89 99.9068 19.2711 99.6129 19.578C99.8156 19.6275 100.082 19.8029 100.263 19.9744H100.26ZM97.8988 19.3474C98.175 19.3474 98.4252 19.2407 98.6039 19.0672H98.606C98.7846 18.8957 98.8961 18.6556 98.8961 18.3906C98.8961 18.1258 98.7846 17.8856 98.606 17.7141H98.6039C98.4231 17.5407 98.1729 17.4339 97.8988 17.4339H94.7446V19.3493H97.8988V19.3474ZM60.9569 17.4321H56.2759V19.3474H60.1148V20.5289H56.2759V22.4442H60.9569V23.6258H55.0423V16.2505H60.9569V17.4321ZM109.641 17.4321H104.96V19.3474H108.799V20.5289H104.96V22.4442H109.641V23.6258H103.727V16.2505H109.641V17.4321ZM71.0412 20.3002V22.6463L70.8071 22.8254C70.4055 23.1322 69.9409 23.3591 69.4524 23.5115H69.4503C68.934 23.6716 68.3916 23.7497 67.8695 23.7497C66.7095 23.7497 65.6684 23.3514 64.9217 22.6672C64.1847 21.9926 63.7361 21.0473 63.7361 19.9362C63.7361 18.8252 64.1868 17.8761 64.9217 17.2053C65.6764 16.5173 66.7271 16.1228 67.8871 16.1228C68.4551 16.1228 69.0012 16.2181 69.4998 16.3991C70.0081 16.5821 70.4673 16.8546 70.8508 17.2034L70.0044 18.0571C69.742 17.8189 69.4246 17.6303 69.0689 17.5026C68.7132 17.3749 68.3142 17.3063 67.8892 17.3063C67.047 17.3063 66.2983 17.5807 65.7719 18.061C65.2753 18.5126 64.9713 19.1587 64.9713 19.9382C64.9713 20.7176 65.2753 21.3579 65.7719 21.8153C66.2924 22.2918 67.0332 22.5701 67.8711 22.5701C68.2743 22.5701 68.6876 22.511 69.0748 22.3909C69.335 22.3089 69.5852 22.2004 69.8119 22.0612V20.3002H71.0433H71.0412ZM75.7841 16.2505V22.4442H80.5174V23.6258H74.5526V16.2505H75.7841ZM46.0625 20.5289V22.4442H50.0012C50.2772 22.4442 50.5275 22.3375 50.7063 22.1641H50.7083C50.8871 21.9926 50.9983 21.7525 50.9983 21.4875C50.9983 21.2226 50.8871 20.9845 50.7063 20.811C50.5256 20.6376 50.2753 20.5309 50.0012 20.5309H46.0625V20.5289ZM51.5783 19.9744C51.9815 20.3613 52.2317 20.8968 52.2317 21.4875C52.2317 22.0784 51.9815 22.6101 51.5763 22.9989C51.1751 23.3877 50.6169 23.6258 50.0012 23.6258H44.8311V16.2505H49.2166C49.8323 16.2505 50.3905 16.4906 50.7937 16.8775C51.1969 17.2663 51.4472 17.8018 51.4472 18.3906C51.4154 18.89 51.2247 19.2711 50.9307 19.578C51.1333 19.6275 51.3995 19.8029 51.5802 19.9744H51.5783ZM49.2166 19.3474C49.4927 19.3474 49.7429 19.2407 49.9217 19.0672H49.9237C50.1025 18.8957 50.2137 18.6556 50.2137 18.3906C50.2137 18.1258 50.1025 17.8856 49.9237 17.7141H49.9217C49.741 17.5407 49.4907 17.4339 49.2166 17.4339H46.0625V19.3493H49.2166V19.3474ZM89.5724 17.171C90.3713 17.9028 90.7702 18.9224 90.7702 19.9382C90.7702 20.954 90.3713 21.9735 89.5724 22.7054C88.8812 23.3381 87.902 23.7517 86.639 23.7517C85.3756 23.7517 84.3964 23.34 83.7052 22.7054C82.9068 21.9735 82.5078 20.954 82.5078 19.9382C82.5078 18.9224 82.9068 17.9028 83.7052 17.171C84.3964 16.5383 85.3756 16.1247 86.639 16.1247C87.902 16.1247 88.8812 16.5364 89.5724 17.171ZM89.5431 19.9382C89.5431 19.2292 89.2705 18.5241 88.7244 18.0248C88.2497 17.5902 87.5564 17.3063 86.6369 17.3063C85.7174 17.3063 85.0241 17.5902 84.5494 18.0248C84.0054 18.5241 83.7313 19.2292 83.7313 19.9382C83.7313 20.6452 84.0033 21.3522 84.5494 21.8516C85.0241 22.2861 85.7174 22.5701 86.6369 22.5701C87.5564 22.5701 88.2497 22.2861 88.7244 21.8516C89.2689 21.3522 89.5431 20.6471 89.5431 19.9382Z" fill="white"/>
</svg>
